<mxfile host="app.diagrams.net" modified="2024-07-01T17:14:15.340Z" agent="Mozilla/5.0 (Windows NT 10.0; Win64; x64) AppleWebKit/537.36 (KHTML, like Gecko) Chrome/126.0.0.0 Safari/537.36" etag="imPO9fElyvirL1u1Z9W-" version="24.6.4" type="device">
  <diagram name="‫עמוד-1‬" id="TuJFT-kbt3ZMEhVEAf-x">
    <mxGraphModel dx="1434" dy="746" grid="1" gridSize="10" guides="1" tooltips="1" connect="1" arrows="1" fold="1" page="1" pageScale="1" pageWidth="827" pageHeight="1169" math="0" shadow="0">
      <root>
        <mxCell id="0" />
        <mxCell id="1" parent="0" />
        <mxCell id="1HA0gxkmwByOSAY0RlAE-9" value="" style="edgeStyle=orthogonalEdgeStyle;rounded=0;orthogonalLoop=1;jettySize=auto;html=1;" parent="1" target="1HA0gxkmwByOSAY0RlAE-8" edge="1" source="A_6DLMi9P8cwQAO1j1V2-12">
          <mxGeometry relative="1" as="geometry">
            <mxPoint x="220" y="160" as="sourcePoint" />
            <Array as="points">
              <mxPoint x="220" y="260" />
              <mxPoint x="220" y="260" />
            </Array>
          </mxGeometry>
        </mxCell>
        <mxCell id="1HA0gxkmwByOSAY0RlAE-8" value="end" style="rounded=1;whiteSpace=wrap;html=1;" parent="1" vertex="1">
          <mxGeometry x="160" y="840" width="120" height="60" as="geometry" />
        </mxCell>
        <mxCell id="A_6DLMi9P8cwQAO1j1V2-5" value="" style="edgeStyle=orthogonalEdgeStyle;rounded=0;orthogonalLoop=1;jettySize=auto;html=1;" edge="1" parent="1" source="1HA0gxkmwByOSAY0RlAE-10" target="A_6DLMi9P8cwQAO1j1V2-3">
          <mxGeometry relative="1" as="geometry" />
        </mxCell>
        <mxCell id="1HA0gxkmwByOSAY0RlAE-10" value="start" style="rounded=1;whiteSpace=wrap;html=1;" parent="1" vertex="1">
          <mxGeometry x="160" y="100" width="120" height="60" as="geometry" />
        </mxCell>
        <mxCell id="1HA0gxkmwByOSAY0RlAE-11" value="4. calculate multiply 55*55555" style="text;html=1;align=center;verticalAlign=middle;whiteSpace=wrap;rounded=0;" parent="1" vertex="1">
          <mxGeometry x="155" y="40" width="130" height="30" as="geometry" />
        </mxCell>
        <mxCell id="A_6DLMi9P8cwQAO1j1V2-6" value="" style="edgeStyle=orthogonalEdgeStyle;rounded=0;orthogonalLoop=1;jettySize=auto;html=1;" edge="1" parent="1" source="A_6DLMi9P8cwQAO1j1V2-3" target="A_6DLMi9P8cwQAO1j1V2-4">
          <mxGeometry relative="1" as="geometry" />
        </mxCell>
        <mxCell id="A_6DLMi9P8cwQAO1j1V2-13" value="" style="edgeStyle=orthogonalEdgeStyle;rounded=0;orthogonalLoop=1;jettySize=auto;html=1;" edge="1" parent="1" source="A_6DLMi9P8cwQAO1j1V2-7" target="A_6DLMi9P8cwQAO1j1V2-8">
          <mxGeometry relative="1" as="geometry" />
        </mxCell>
        <mxCell id="A_6DLMi9P8cwQAO1j1V2-10" value="" style="edgeStyle=orthogonalEdgeStyle;rounded=0;orthogonalLoop=1;jettySize=auto;html=1;" edge="1" parent="1" target="A_6DLMi9P8cwQAO1j1V2-9">
          <mxGeometry relative="1" as="geometry">
            <mxPoint x="220" y="160" as="sourcePoint" />
            <Array as="points" />
            <mxPoint x="220" y="780" as="targetPoint" />
          </mxGeometry>
        </mxCell>
        <mxCell id="A_6DLMi9P8cwQAO1j1V2-9" value="mul (int) = x * y" style="rounded=0;whiteSpace=wrap;html=1;" vertex="1" parent="1">
          <mxGeometry x="160" y="620" width="120" height="60" as="geometry" />
        </mxCell>
        <mxCell id="A_6DLMi9P8cwQAO1j1V2-14" value="" style="edgeStyle=orthogonalEdgeStyle;rounded=0;orthogonalLoop=1;jettySize=auto;html=1;" edge="1" parent="1" source="A_6DLMi9P8cwQAO1j1V2-8" target="A_6DLMi9P8cwQAO1j1V2-9">
          <mxGeometry relative="1" as="geometry" />
        </mxCell>
        <mxCell id="A_6DLMi9P8cwQAO1j1V2-8" value="print(y)" style="shape=document;whiteSpace=wrap;html=1;boundedLbl=1;" vertex="1" parent="1">
          <mxGeometry x="160" y="505" width="120" height="80" as="geometry" />
        </mxCell>
        <mxCell id="A_6DLMi9P8cwQAO1j1V2-7" value="y (int) = 55555" style="rounded=0;whiteSpace=wrap;html=1;" vertex="1" parent="1">
          <mxGeometry x="160" y="400" width="120" height="60" as="geometry" />
        </mxCell>
        <mxCell id="A_6DLMi9P8cwQAO1j1V2-15" value="" style="edgeStyle=orthogonalEdgeStyle;rounded=0;orthogonalLoop=1;jettySize=auto;html=1;" edge="1" parent="1" source="A_6DLMi9P8cwQAO1j1V2-4" target="A_6DLMi9P8cwQAO1j1V2-7">
          <mxGeometry relative="1" as="geometry" />
        </mxCell>
        <mxCell id="A_6DLMi9P8cwQAO1j1V2-4" value="print(x)" style="shape=document;whiteSpace=wrap;html=1;boundedLbl=1;" vertex="1" parent="1">
          <mxGeometry x="160" y="290" width="120" height="80" as="geometry" />
        </mxCell>
        <mxCell id="A_6DLMi9P8cwQAO1j1V2-3" value="x (int) = 55" style="rounded=0;whiteSpace=wrap;html=1;" vertex="1" parent="1">
          <mxGeometry x="160" y="200" width="120" height="60" as="geometry" />
        </mxCell>
        <mxCell id="A_6DLMi9P8cwQAO1j1V2-16" value="" style="edgeStyle=orthogonalEdgeStyle;rounded=0;orthogonalLoop=1;jettySize=auto;html=1;" edge="1" parent="1" source="A_6DLMi9P8cwQAO1j1V2-9" target="A_6DLMi9P8cwQAO1j1V2-12">
          <mxGeometry relative="1" as="geometry">
            <mxPoint x="220" y="620" as="sourcePoint" />
            <Array as="points" />
            <mxPoint x="220" y="840" as="targetPoint" />
          </mxGeometry>
        </mxCell>
        <mxCell id="A_6DLMi9P8cwQAO1j1V2-12" value="print(mul)" style="shape=document;whiteSpace=wrap;html=1;boundedLbl=1;" vertex="1" parent="1">
          <mxGeometry x="160" y="720" width="120" height="80" as="geometry" />
        </mxCell>
      </root>
    </mxGraphModel>
  </diagram>
</mxfile>
